<svg width="100%" viewBox="0 0 680 680" role="img" style="" xmlns="http://www.w3.org/2000/svg">
<title style="fill:rgb(0, 0, 0);stroke:none;color:rgb(11, 11, 11);stroke-width:1px;stroke-linecap:butt;stroke-linejoin:miter;opacity:1;font-family:anthropic-sans, -apple-system, BlinkMacSystemFont, &quot;Segoe UI&quot;, sans-serif;font-size:16px;font-weight:400;text-anchor:start;dominant-baseline:auto">Glowing heart icon on burgundy background</title>
<desc style="fill:rgb(0, 0, 0);stroke:none;color:rgb(11, 11, 11);stroke-width:1px;stroke-linecap:butt;stroke-linejoin:miter;opacity:1;font-family:anthropic-sans, -apple-system, BlinkMacSystemFont, &quot;Segoe UI&quot;, sans-serif;font-size:16px;font-weight:400;text-anchor:start;dominant-baseline:auto">A minimalist flat vector heart icon with a soft glow, centered on a solid deep burgundy square, in an app logo style.</desc>
<defs>
<radialGradient id="glow" cx="50%" cy="45%" r="55%">
<stop offset="0%" stop-color="#ff5c7a" stop-opacity="0.55"/>
<stop offset="60%" stop-color="#ff5c7a" stop-opacity="0.15"/>
<stop offset="100%" stop-color="#ff5c7a" stop-opacity="0"/>
</radialGradient>
</defs>
<rect x="0" y="0" width="680" height="680" fill="#800020" style="fill:rgb(128, 0, 32);stroke:none;color:rgb(11, 11, 11);stroke-width:1px;stroke-linecap:butt;stroke-linejoin:miter;opacity:1;font-family:anthropic-sans, -apple-system, BlinkMacSystemFont, &quot;Segoe UI&quot;, sans-serif;font-size:16px;font-weight:400;text-anchor:start;dominant-baseline:auto"/>
<circle cx="340" cy="320" r="260" fill="url(#glow)" style="stroke:none;color:rgb(11, 11, 11);stroke-width:1px;stroke-linecap:butt;stroke-linejoin:miter;opacity:1;font-family:anthropic-sans, -apple-system, BlinkMacSystemFont, &quot;Segoe UI&quot;, sans-serif;font-size:16px;font-weight:400;text-anchor:start;dominant-baseline:auto"/>
<path d="M340 480&#10;C 200 380, 130 300, 130 220&#10;C 130 150, 185 110, 245 110&#10;C 290 110, 325 135, 340 175&#10;C 355 135, 390 110, 435 110&#10;C 495 110, 550 150, 550 220&#10;C 550 300, 480 380, 340 480 Z" fill="#ff4d6d" style="fill:rgb(255, 77, 109);stroke:none;color:rgb(11, 11, 11);stroke-width:1px;stroke-linecap:butt;stroke-linejoin:miter;opacity:1;font-family:anthropic-sans, -apple-system, BlinkMacSystemFont, &quot;Segoe UI&quot;, sans-serif;font-size:16px;font-weight:400;text-anchor:start;dominant-baseline:auto"/>
<path d="M340 480&#10;C 200 380, 130 300, 130 220&#10;C 130 150, 185 110, 245 110&#10;C 290 110, 325 135, 340 175&#10;C 355 135, 390 110, 435 110&#10;C 495 110, 550 150, 550 220&#10;C 550 300, 480 380, 340 480 Z" fill="none" stroke="#ffb3c1" stroke-width="1" stroke-opacity="0.4" style="fill:none;stroke:rgb(255, 179, 193);color:rgb(11, 11, 11);stroke-width:1px;stroke-linecap:butt;stroke-linejoin:miter;opacity:1;font-family:anthropic-sans, -apple-system, BlinkMacSystemFont, &quot;Segoe UI&quot;, sans-serif;font-size:16px;font-weight:400;text-anchor:start;dominant-baseline:auto"/>
<ellipse cx="245" cy="200" rx="35" ry="22" fill="#ffffff" opacity="0.35" transform="rotate(-30 245 200)" style="fill:rgb(255, 255, 255);stroke:none;color:rgb(11, 11, 11);stroke-width:1px;stroke-linecap:butt;stroke-linejoin:miter;opacity:0.35;font-family:anthropic-sans, -apple-system, BlinkMacSystemFont, &quot;Segoe UI&quot;, sans-serif;font-size:16px;font-weight:400;text-anchor:start;dominant-baseline:auto"/>
</svg>